<?xml version="1.0" encoding="utf-8"?>
<!-- Generator: Adobe Illustrator 20.1.0, SVG Export Plug-In . SVG Version: 6.00 Build 0)  -->
<svg version="1.1" id="Layer_1" xmlns="http://www.w3.org/2000/svg" xmlns:xlink="http://www.w3.org/1999/xlink" x="0px" y="0px"
	 viewBox="0 0 130 130" style="enable-background:new 0 0 130 130;" xml:space="preserve">
<style type="text/css">
	.st0{fill:#FFFFFF;}
	.st1{fill:none;stroke:#FFFFFF;stroke-miterlimit:10;}
</style>
<g>
	<path class="st0" d="M71.1,68.4l-3-7.4H52.2l-3,7.4h-3l12.3-30h3.2l12.3,30H71.1z M60.2,41.1l-7.1,17.5h14.2L60.2,41.1z"/>
	<path class="st0" d="M77.8,41.5c0-1,0.9-1.8,1.8-1.8c1,0,1.8,0.8,1.8,1.8s-0.8,1.8-1.8,1.8C78.6,43.3,77.8,42.4,77.8,41.5z
		 M78.4,68.4V46.7h2.3v21.7H78.4z"/>
</g>
<circle class="st1" cx="65" cy="54.2" r="47.2"/>
<circle class="st0" cx="85.8" cy="115.5" r="9.6"/>
<circle class="st0" cx="66.7" cy="115.5" r="9.6"/>
<circle class="st0" cx="47.5" cy="115.5" r="9.6"/>
<circle class="st0" cx="28.3" cy="115.5" r="9.6"/>
<g>
	<circle class="st0" cx="105" cy="115.5" r="9.6"/>
</g>
</svg>
