<?xml version="1.0" encoding="utf-8"?>
<!-- Generator: Adobe Illustrator 20.1.0, SVG Export Plug-In . SVG Version: 6.00 Build 0)  -->
<svg version="1.1" id="Layer_1" xmlns="http://www.w3.org/2000/svg" xmlns:xlink="http://www.w3.org/1999/xlink" x="0px" y="0px"
	 viewBox="0 0 130 130" style="enable-background:new 0 0 130 130;" xml:space="preserve">
<style type="text/css">
	.st0{fill:#FFFFFF;}
	.st1{fill:none;stroke:#FFFFFF;stroke-miterlimit:10;}
</style>
<g>
	<path class="st0" d="M45.6,68.4v-30h11.2c5.8,0,9,4,9,8.8c0,4.7-3.3,8.8-9,8.8h-8.7v12.5L45.6,68.4L45.6,68.4z M63.2,47.2
		c0-3.8-2.7-6.4-6.6-6.4h-8.4v12.9h8.4C60.5,53.6,63.2,51,63.2,47.2z"/>
	<path class="st0" d="M69.3,65.5l1.4-1.8c1.4,1.8,4,3.2,7,3.2c3.6,0,5.8-1.9,5.8-4.4c0-5.9-13.7-2.6-13.7-10.4c0-3.3,2.8-6,7.7-6
		c3.7,0,6.2,1.4,7.8,3.2L84,51c-1.3-1.7-3.6-2.9-6.5-2.9c-3.4,0-5.4,1.7-5.4,4c0,5.4,13.7,2.1,13.7,10.5c0,3.5-2.7,6.4-8.1,6.4
		C74.1,69,71.4,67.9,69.3,65.5z"/>
</g>
<circle class="st1" cx="65" cy="54.2" r="47.2"/>
<circle class="st0" cx="83.5" cy="115.5" r="9.6"/>
<circle class="st0" cx="64.3" cy="115.5" r="9.6"/>
<circle class="st0" cx="45.1" cy="115.5" r="9.6"/>
<circle class="st0" cx="26" cy="115.5" r="9.6"/>
<g>
	<circle class="st1" cx="102.6" cy="115.5" r="9.6"/>
</g>
</svg>
