<?xml version="1.0" encoding="utf-8"?>
<!-- Generator: Adobe Illustrator 19.2.0, SVG Export Plug-In . SVG Version: 6.00 Build 0)  -->
<svg version="1.1" id="Layer_1" xmlns="http://www.w3.org/2000/svg" xmlns:xlink="http://www.w3.org/1999/xlink" x="0px" y="0px"
	 viewBox="0 0 130 130" style="enable-background:new 0 0 130 130;" xml:space="preserve">
<style type="text/css">
	.st0{fill:#FFFFFF;}
	.st1{fill:none;stroke:#FFFFFF;stroke-miterlimit:10;}
</style>
<g>
	<path class="st0" d="M64.3,68.4V41.9L53.3,68.4h-1l-11-26.5v26.5h-2.6v-30h3.8l10.2,24.7L63,38.4h3.9v30H64.3z"/>
	<path class="st0" d="M88.9,68.4v-3.2c-1.8,2-4.7,3.7-7.8,3.7c-4.5,0-6.8-2.1-6.8-7V46.7h2.3v14.8c0,4.2,2.1,5.4,5.3,5.4
		c2.8,0,5.6-1.7,7.1-3.6V46.7h2.3v21.7H88.9z"/>
</g>
<circle class="st1" cx="65" cy="54.2" r="47.2"/>
<circle class="st1" cx="85.8" cy="115.5" r="9.6"/>
<circle class="st0" cx="66.7" cy="115.5" r="9.6"/>
<circle class="st0" cx="47.5" cy="115.5" r="9.6"/>
<circle class="st0" cx="28.3" cy="115.5" r="9.6"/>
<g>
	<circle class="st1" cx="105" cy="115.5" r="9.6"/>
</g>
</svg>
