<?xml version="1.0" encoding="utf-8"?>
<!-- Generator: Adobe Illustrator 20.1.0, SVG Export Plug-In . SVG Version: 6.00 Build 0)  -->
<svg version="1.1" id="Layer_1" xmlns="http://www.w3.org/2000/svg" xmlns:xlink="http://www.w3.org/1999/xlink" x="0px" y="0px"
	 viewBox="0 0 130 130" style="enable-background:new 0 0 130 130;" xml:space="preserve">
<style type="text/css">
	.st0{fill:#FFFFFF;}
	.st1{fill:none;stroke:#FFFFFF;stroke-miterlimit:10;}
</style>
<g>
	<path class="st0" d="M50.9,68.4v-30h2.6v30H50.9z"/>
	<path class="st0" d="M76.8,68.4v-3.5c-1.5,2.2-4.3,4-7.6,4c-5.8,0-9.7-4.4-9.7-11.4c0-6.9,4-11.4,9.7-11.4c3.1,0,5.8,1.6,7.6,4
		V38.4h2.4v30H76.8z M76.8,63V52.2c-1.3-2.1-4.1-4-7.2-4c-4.8,0-7.6,4-7.6,9.3s2.8,9.3,7.6,9.3C72.7,66.8,75.6,65,76.8,63z"/>
</g>
<circle class="st1" cx="65" cy="54.2" r="47.2"/>
<circle class="st0" cx="84.2" cy="115.5" r="9.6"/>
<circle class="st0" cx="65" cy="115.5" r="9.6"/>
<circle class="st0" cx="45.8" cy="115.5" r="9.6"/>
<circle class="st0" cx="26.7" cy="115.5" r="9.6"/>
<g>
	<circle class="st0" cx="103.3" cy="115.5" r="9.6"/>
</g>
</svg>
