<?xml version="1.0" encoding="utf-8"?>
<!-- Generator: Adobe Illustrator 20.1.0, SVG Export Plug-In . SVG Version: 6.00 Build 0)  -->
<svg version="1.1" id="Layer_1" xmlns="http://www.w3.org/2000/svg" xmlns:xlink="http://www.w3.org/1999/xlink" x="0px" y="0px"
	 viewBox="0 0 130 130" style="enable-background:new 0 0 130 130;" xml:space="preserve">
<style type="text/css">
	.st0{fill:#FFFFFF;}
	.st1{fill:none;stroke:#FFFFFF;stroke-miterlimit:10;}
</style>
<g>
	<path class="st0" d="M37.3,68.4v-30h9.6c9.3,0,15.2,6.8,15.2,15c0,8.3-5.8,15-15.2,15H37.3z M59.4,53.4c0-7-4.5-12.7-12.5-12.7h-7
		V66h7C54.8,66.1,59.4,60.4,59.4,53.4z"/>
	<path class="st0" d="M87,68.4l-6.1-18.6l-6.1,18.6h-2.3l-7.1-21.7H68l5.8,18.4l6.1-18.4h2L88,65.1l5.8-18.4h2.5l-7.1,21.7
		C89.2,68.4,87,68.4,87,68.4z"/>
</g>
<circle class="st1" cx="65.3" cy="54.2" r="47.2"/>
<circle class="st1" cx="86.2" cy="115.5" r="9.6"/>
<circle class="st0" cx="67" cy="115.5" r="9.6"/>
<circle class="st0" cx="47.8" cy="115.5" r="9.6"/>
<circle class="st0" cx="28.7" cy="115.5" r="9.6"/>
<g>
	<circle class="st1" cx="105.3" cy="115.5" r="9.6"/>
</g>
</svg>
