<?xml version="1.0" encoding="utf-8"?>
<!-- Generator: Adobe Illustrator 20.1.0, SVG Export Plug-In . SVG Version: 6.00 Build 0)  -->
<svg version="1.1" id="Layer_1" xmlns="http://www.w3.org/2000/svg" xmlns:xlink="http://www.w3.org/1999/xlink" x="0px" y="0px"
	 viewBox="0 0 130 130" style="enable-background:new 0 0 130 130;" xml:space="preserve">
<style type="text/css">
	.st0{fill:#FFFFFF;}
	.st1{fill:none;stroke:#FFFFFF;stroke-miterlimit:10;}
</style>
<g>
	<g>
		<g>
			<path class="st0" d="M64.4,68.4l-3-7.4H45.5l-3,7.4h-3l12.3-30H55l12.3,30H64.4z M53.5,41.1l-7.1,17.5h14.2L53.5,41.1z"/>
		</g>
	</g>
	<circle class="st1" cx="64.3" cy="54.2" r="47.2"/>
	<circle class="st1" cx="85.1" cy="115.5" r="9.6"/>
	<circle class="st0" cx="66" cy="115.5" r="9.6"/>
	<circle class="st0" cx="46.8" cy="115.5" r="9.6"/>
	<circle class="st0" cx="27.6" cy="115.5" r="9.6"/>
	<g>
		<circle class="st1" cx="104.3" cy="115.5" r="9.6"/>
	</g>
	<g>
		<path class="st0" d="M90.8,57.5H69.9c0.4,2.7,1.5,4.8,3.3,6.4c1.9,1.6,4.2,2.4,6.9,2.4c1.5,0,3.1-0.3,4.8-0.8c1.7-0.5,3-1.2,4.1-2
			c0.3-0.2,0.6-0.4,0.8-0.4c0.3,0,0.5,0.1,0.7,0.3c0.2,0.2,0.3,0.4,0.3,0.7c0,0.3-0.1,0.5-0.4,0.8c-0.8,0.8-2.2,1.6-4.2,2.3
			c-2,0.7-4,1.1-6.1,1.1c-3.5,0-6.4-1.2-8.8-3.5c-2.4-2.3-3.5-5.1-3.5-8.4c0-3,1.1-5.5,3.3-7.7c2.2-2.1,4.9-3.2,8.2-3.2
			c3.4,0,6.1,1.1,8.3,3.3C89.7,51.2,90.8,54,90.8,57.5z M88.7,55.4c-0.4-2.3-1.5-4.1-3.2-5.5s-3.8-2.1-6.2-2.1s-4.5,0.7-6.2,2.1
			c-1.7,1.4-2.8,3.2-3.2,5.5H88.7z"/>
	</g>
</g>
</svg>
