<?xml version="1.0" encoding="utf-8"?>
<!-- Generator: Adobe Illustrator 20.1.0, SVG Export Plug-In . SVG Version: 6.00 Build 0)  -->
<svg version="1.1" id="Layer_1" xmlns="http://www.w3.org/2000/svg" xmlns:xlink="http://www.w3.org/1999/xlink" x="0px" y="0px"
	 viewBox="0 0 100 100" style="enable-background:new 0 0 100 100;" xml:space="preserve">
<style type="text/css">
	.st0{enable-background:new    ;}
	.st1{fill:#FFFFFF;}
</style>
<g class="st0">
	<path class="st1" d="M39,71.3l-7.3-26.9l-7.8,26.9h-6.6L7.7,34.1c-0.2-0.8-0.5-1-1.2-1.1l-3.4-0.6l0.6-3.1h14.6v3.1L13.1,33
		l7.8,32.5l7.9-27.8h6L42.6,66l8.2-33l-5.3-0.6l0.6-3.1h13.6v3.1l-3,0.5c-0.8,0.1-1,0.3-1.3,1.2L46,71.3H39z"/>
	<path class="st1" d="M63.7,71.3v-3.1l3.7-0.4c0.8-0.1,0.9-0.3,0.9-1.2V34c0-0.9-0.1-1.1-0.9-1.2l-3.7-0.4v-3.2h17.9
		c10.7,0,14,5.7,14,12.4c0,10-6.1,13.8-15.9,13.8h-6.1v11.1c0,0.9,0.1,1,0.9,1.2l8.3,0.5v3.1H63.7z M79.3,51.2
		c5.9,0,10.8-1.3,10.8-9.3c0-6.1-3.4-8.4-10.1-8.4h-6.4v17.7H79.3z"/>
</g>
</svg>
