<svg id="Layer_1" data-name="Layer 1" xmlns="http://www.w3.org/2000/svg" viewBox="0 0 250 250"><defs><style>.cls-1{fill:#fff;}</style></defs><title>What I Do icons</title><g id="Picture"><path class="cls-1" d="M230,21.54H18A15.19,15.19,0,0,0,2.85,36.68V210.86A15.19,15.19,0,0,0,18,226H230a15.19,15.19,0,0,0,15.14-15.14V36.68A15.19,15.19,0,0,0,230,21.54Zm0,189.32H18V166.25l60.77-58.89,62.64,62.58c2.58,3.14,7.18,2.74,10.44.27l27.65-25,49.88,51.19a7.66,7.66,0,0,0,.61.54v14Zm0-35.56-44.49-45.53a7.58,7.58,0,0,0-9.92-.65L147,154,84.37,92A7.58,7.58,0,0,0,79,89.22a7.84,7.84,0,0,0-5.67,2L18,145.11V36.68H230V175.3Zm-53-78a15.1,15.1,0,1,0-15.1-15.1A15.1,15.1,0,0,0,177,97.3Z"/></g></svg>