<svg id="Layer_1" data-name="Layer 1" xmlns="http://www.w3.org/2000/svg" viewBox="0 0 250 250"><defs><style>.cls-1{fill:#fff;fill-rule:evenodd;}</style></defs><title>What I Do icons</title><g id="Energy"><path class="cls-1" d="M202.85,101.32a15.07,15.07,0,0,0-13.33-8.23L146.27,93l13.45-70.46a14.72,14.72,0,0,0,.43-3.53A15,15,0,0,0,145.62,4h-0.54c-0.4,0-.81,0-1.21,0a12.5,12.5,0,0,0-6.48,2.5,15.07,15.07,0,0,0-3.14,2.8c-0.27.32-.53,0.66-0.77,1l-84,111.15a14.92,14.92,0,0,0-1.26,15.56,15.07,15.07,0,0,0,13.33,8.23l43.26,0.31-13.6,80.13A15,15,0,0,0,106,243.5c4.71,0,8.58-2.2,11.49-6.18L201.6,116.88A14.92,14.92,0,0,0,202.85,101.32ZM106,228.51l16.91-97.74-61.25-.21L145.07,19l-16.91,88.84,61.25,0.2Z"/></g></svg>