<svg id="Layer_1" data-name="Layer 1" xmlns="http://www.w3.org/2000/svg" viewBox="0 0 250 250"><defs><style>.cls-1{fill:#fff;}</style></defs><title>What I Do icons</title><g id="Eyeglasses"><path class="cls-1" d="M245.12,141.71c-0.23-3.27-12.51-75.34-14.43-86.88-0.18-1.11-.33-2.29-0.49-3.52-1.48-11.6-4.25-33.18-39-33.18a7.55,7.55,0,0,0,0,15.1c21.5,0,22.64,8.83,24.07,20,0.18,1.43.36,2.8,0.58,4.08,0.88,5.31,4.88,26.42,8.33,47.36a52.46,52.46,0,0,0-31.87-10.74,53.94,53.94,0,0,0-45.88,25.78,64.09,64.09,0,0,0-22.46-3.83,58.94,58.94,0,0,0-22.15,4,52.67,52.67,0,0,0-45.41-26,53.7,53.7,0,0,0-33.47,11.74c3.5-21.23,7.64-42.94,8.54-48.37,0.21-1.28.39-2.65,0.58-4.08,1.43-11.18,2.57-20,24.07-20a7.55,7.55,0,0,0,0-15.1C21.27,18.12,18.5,39.7,17,51.3c-0.16,1.24-.31,2.42-0.49,3.52C14.6,66.37,3.07,138,2.84,141.24a7.52,7.52,0,0,0,.13,2c-0.07,1.12-.12,2.24-0.12,3.38,0,29.1,24.39,52.7,53.49,52.7a52.71,52.71,0,0,0,51.14-65.46A44.52,44.52,0,0,1,123.9,131a50.18,50.18,0,0,1,16.53,2.65,51.33,51.33,0,0,0-1.67,13c0,29.1,24.38,52.7,53.49,52.7a52.7,52.7,0,0,0,52.7-52.7c0-.83,0-1.65-0.06-2.46A7.51,7.51,0,0,0,245.12,141.71ZM56.34,184.23C35.53,184.23,18,167,18,146.63S35.53,109,56.34,109A37.6,37.6,0,0,1,56.34,184.23Zm135.91,0c-20.81,0-38.39-17.22-38.39-37.6S171.44,109,192.25,109a37.65,37.65,0,0,1,36.67,29.33c0.16,1.59.29,3.07,0.39,4.43a6.34,6.34,0,0,0,.49,2c0,0.6,0,1.21,0,1.82A37.64,37.64,0,0,1,192.25,184.23Z"/></g></svg>