<svg id="Layer_1" data-name="Layer 1" xmlns="http://www.w3.org/2000/svg" viewBox="0 0 250 250"><defs><style>.cls-1{fill:#fff;}</style></defs><title>What I Do icons</title><g id="Layers"><path class="cls-1" d="M10.78,73.59l110.62,60.24a7.44,7.44,0,0,0,7.1,0L240.29,73.61a7.45,7.45,0,0,0-.16-13.2L129.51,4.23a7.47,7.47,0,0,0-6.72,0L11,60.39A7.45,7.45,0,0,0,10.78,73.59ZM126.11,19.22l94.57,48L125,118.81,30.42,67.31Zm112.74,95.94-22.11-11.23-16,8.61L219.4,122l-95.69,51.57-94.58-51.5,19.86-10L33.08,103.4,9.72,115.14a7.45,7.45,0,0,0-.22,13.2l110.62,60.24a7.44,7.44,0,0,0,7.1,0L239,128.35A7.45,7.45,0,0,0,238.85,115.15Zm0,52.16L217.91,157l-16,8.61,17.46,8.53-95.69,51.57-94.58-51.5,18.47-8.35-15.92-8.67-22,10.11a7.45,7.45,0,0,0-.22,13.2l110.62,60.24a7.43,7.43,0,0,0,7.1,0L239,180.51A7.45,7.45,0,0,0,238.85,167.31Z"/></g></svg>